<svg xmlns="http://www.w3.org/2000/svg" xmlns:xlink="http://www.w3.org/1999/xlink" width="160" zoomAndPan="magnify" viewBox="0 0 120 30.000001" height="40" preserveAspectRatio="xMidYMid meet" version="1.0"><defs><g/><clipPath id="919221bf7c"><path d="M 7 3.117188 L 32 3.117188 L 32 26.34375 L 7 26.34375 Z M 7 3.117188 " clip-rule="nonzero"/></clipPath></defs><g clip-path="url(#919221bf7c)"><path fill="#30d69e" d="M 16.40625 12.371094 C 16.125 12.160156 15.863281 11.917969 15.628906 11.648438 C 15.394531 11.382812 15.191406 11.089844 15.015625 10.78125 C 14.84375 10.46875 14.703125 10.140625 14.59375 9.800781 C 14.488281 9.457031 14.417969 9.109375 14.382812 8.753906 C 14.347656 8.398438 14.347656 8.039062 14.386719 7.683594 C 14.425781 7.328125 14.503906 6.980469 14.613281 6.640625 C 14.722656 6.300781 14.867188 5.976562 15.046875 5.667969 C 15.226562 5.355469 15.433594 5.070312 15.671875 4.804688 C 15.910156 4.539062 16.171875 4.300781 16.457031 4.089844 C 16.746094 3.882812 17.050781 3.703125 17.375 3.558594 C 17.695312 3.414062 18.03125 3.304688 18.378906 3.230469 C 18.722656 3.15625 19.074219 3.117188 19.429688 3.117188 C 19.78125 3.117188 20.132812 3.15625 20.476562 3.230469 C 20.824219 3.304688 21.160156 3.414062 21.484375 3.558594 C 21.804688 3.703125 22.113281 3.882812 22.398438 4.089844 C 22.683594 4.300781 22.949219 4.539062 23.183594 4.804688 C 23.421875 5.070312 23.628906 5.355469 23.808594 5.667969 C 23.988281 5.976562 24.132812 6.300781 24.242188 6.640625 C 24.355469 6.980469 24.429688 7.328125 24.46875 7.683594 C 24.507812 8.039062 24.507812 8.398438 24.472656 8.753906 C 24.4375 9.109375 24.367188 9.457031 24.261719 9.800781 C 24.15625 10.140625 24.015625 10.46875 23.839844 10.78125 C 23.664062 11.089844 23.460938 11.382812 23.226562 11.648438 C 22.992188 11.917969 22.730469 12.160156 22.449219 12.371094 L 20.691406 13.6875 C 20.503906 13.832031 20.347656 14.003906 20.222656 14.207031 C 20.097656 14.410156 20.011719 14.625 19.964844 14.859375 C 19.921875 15.09375 19.914062 15.324219 19.953125 15.558594 C 19.992188 15.796875 20.070312 16.015625 20.1875 16.222656 C 20.304688 16.425781 20.453125 16.605469 20.636719 16.753906 C 20.816406 16.90625 21.019531 17.019531 21.242188 17.09375 C 21.464844 17.171875 21.695312 17.203125 21.929688 17.195312 C 22.164062 17.1875 22.390625 17.136719 22.605469 17.046875 L 24.609375 16.164062 C 24.933594 16.023438 25.269531 15.914062 25.617188 15.84375 C 25.964844 15.773438 26.316406 15.738281 26.667969 15.742188 C 27.023438 15.746094 27.371094 15.785156 27.71875 15.863281 C 28.0625 15.9375 28.398438 16.050781 28.71875 16.199219 C 29.042969 16.347656 29.347656 16.527344 29.632812 16.738281 C 29.917969 16.949219 30.175781 17.191406 30.414062 17.457031 C 30.648438 17.726562 30.851562 18.015625 31.027344 18.324219 C 31.203125 18.636719 31.347656 18.960938 31.457031 19.304688 C 31.5625 19.644531 31.636719 19.992188 31.671875 20.347656 C 31.707031 20.707031 31.707031 21.0625 31.667969 21.417969 C 31.632812 21.773438 31.558594 22.121094 31.449219 22.464844 C 31.339844 22.804688 31.195312 23.128906 31.019531 23.4375 C 30.839844 23.75 30.632812 24.039062 30.398438 24.304688 C 30.160156 24.570312 29.898438 24.808594 29.613281 25.019531 C 29.328125 25.230469 29.023438 25.410156 28.699219 25.554688 C 28.375 25.703125 28.042969 25.8125 27.695312 25.886719 C 27.351562 25.964844 27 26.003906 26.644531 26.003906 C 26.292969 26.003906 25.941406 25.96875 25.59375 25.898438 C 25.25 25.824219 24.914062 25.714844 24.589844 25.570312 C 24.265625 25.425781 23.960938 25.25 23.671875 25.042969 C 23.382812 24.832031 23.121094 24.597656 22.882812 24.332031 C 22.644531 24.066406 22.433594 23.78125 22.253906 23.472656 C 22.078125 23.164062 21.929688 22.839844 21.820312 22.5 C 21.707031 22.160156 21.628906 21.8125 21.589844 21.457031 L 21.34375 19.261719 C 21.316406 19.023438 21.246094 18.796875 21.136719 18.585938 C 21.03125 18.371094 20.886719 18.1875 20.710938 18.027344 C 20.535156 17.867188 20.335938 17.746094 20.113281 17.660156 C 19.890625 17.574219 19.664062 17.53125 19.425781 17.53125 C 19.191406 17.53125 18.960938 17.574219 18.738281 17.660156 C 18.519531 17.746094 18.320312 17.867188 18.144531 18.027344 C 17.96875 18.1875 17.824219 18.371094 17.714844 18.585938 C 17.605469 18.796875 17.539062 19.023438 17.511719 19.261719 L 17.261719 21.457031 C 17.222656 21.8125 17.148438 22.160156 17.035156 22.5 C 16.921875 22.839844 16.777344 23.164062 16.597656 23.472656 C 16.417969 23.78125 16.210938 24.066406 15.972656 24.332031 C 15.730469 24.597656 15.46875 24.832031 15.179688 25.042969 C 14.894531 25.25 14.589844 25.425781 14.265625 25.570312 C 13.941406 25.714844 13.605469 25.824219 13.257812 25.898438 C 12.910156 25.96875 12.5625 26.003906 12.207031 26.003906 C 11.851562 26.003906 11.503906 25.964844 11.15625 25.886719 C 10.8125 25.8125 10.476562 25.703125 10.152344 25.554688 C 9.832031 25.410156 9.527344 25.230469 9.238281 25.019531 C 8.953125 24.808594 8.691406 24.570312 8.457031 24.304688 C 8.21875 24.039062 8.011719 23.75 7.835938 23.4375 C 7.660156 23.128906 7.515625 22.804688 7.40625 22.464844 C 7.296875 22.121094 7.222656 21.773438 7.183594 21.417969 C 7.148438 21.0625 7.144531 20.707031 7.183594 20.347656 C 7.21875 19.992188 7.289062 19.644531 7.398438 19.304688 C 7.507812 18.960938 7.648438 18.636719 7.824219 18.324219 C 8 18.015625 8.207031 17.726562 8.441406 17.457031 C 8.675781 17.191406 8.9375 16.949219 9.222656 16.738281 C 9.507812 16.527344 9.8125 16.347656 10.132812 16.199219 C 10.457031 16.050781 10.789062 15.9375 11.136719 15.863281 C 11.480469 15.785156 11.832031 15.746094 12.183594 15.742188 C 12.539062 15.738281 12.890625 15.773438 13.234375 15.84375 C 13.582031 15.914062 13.917969 16.023438 14.242188 16.164062 L 16.246094 17.046875 C 16.464844 17.136719 16.691406 17.1875 16.925781 17.195312 C 17.160156 17.203125 17.386719 17.171875 17.609375 17.09375 C 17.832031 17.019531 18.035156 16.90625 18.21875 16.753906 C 18.398438 16.605469 18.546875 16.425781 18.667969 16.222656 C 18.785156 16.015625 18.863281 15.796875 18.898438 15.558594 C 18.9375 15.324219 18.933594 15.09375 18.886719 14.859375 C 18.839844 14.625 18.753906 14.410156 18.632812 14.207031 C 18.507812 14.003906 18.351562 13.832031 18.164062 13.6875 Z M 16.40625 12.371094 " fill-opacity="1" fill-rule="evenodd"/></g><g fill="#1ed891" fill-opacity="1"><g transform="translate(34.41829, 20.683472)"><g><path d="M -0.078125 0 L 5.390625 -13.296875 L 8.59375 -13.296875 L 13.984375 0 L 11 0 L 9.65625 -3.5 L 4.15625 -3.5 L 2.796875 0 Z M 5.015625 -5.703125 L 8.8125 -5.703125 L 6.9375 -10.609375 Z M 5.015625 -5.703125 "/></g></g></g><g fill="#1ed891" fill-opacity="1"><g transform="translate(47.758656, 20.683472)"><g><path d="M 2.3125 -11.078125 C 1.90625 -11.078125 1.554688 -11.222656 1.265625 -11.515625 C 0.984375 -11.804688 0.84375 -12.15625 0.84375 -12.5625 C 0.84375 -12.96875 0.984375 -13.316406 1.265625 -13.609375 C 1.554688 -13.898438 1.90625 -14.046875 2.3125 -14.046875 C 2.71875 -14.046875 3.066406 -13.898438 3.359375 -13.609375 C 3.648438 -13.316406 3.796875 -12.96875 3.796875 -12.5625 C 3.796875 -12.15625 3.648438 -11.804688 3.359375 -11.515625 C 3.066406 -11.222656 2.71875 -11.078125 2.3125 -11.078125 Z M 3.625 -9.90625 L 3.625 0 L 1.03125 0 L 1.03125 -9.90625 Z M 3.625 -9.90625 "/></g></g></g><g fill="#ffffff" fill-opacity="1"><g transform="translate(51.821782, 20.683472)"><g><path d="M 1.03125 0 L 1.03125 -9.90625 L 3.625 -9.90625 L 3.625 -9.15625 C 3.976562 -9.457031 4.367188 -9.6875 4.796875 -9.84375 C 5.234375 -10.007812 5.707031 -10.09375 6.21875 -10.09375 C 6.84375 -10.09375 7.410156 -9.960938 7.921875 -9.703125 C 8.441406 -9.441406 8.867188 -9.078125 9.203125 -8.609375 C 9.585938 -9.085938 10.054688 -9.453125 10.609375 -9.703125 C 11.171875 -9.960938 11.789062 -10.09375 12.46875 -10.09375 C 13.5625 -10.09375 14.460938 -9.722656 15.171875 -8.984375 C 15.890625 -8.253906 16.25 -7.3125 16.25 -6.15625 L 16.25 0 L 13.640625 0 L 13.640625 -5.78125 C 13.640625 -6.394531 13.472656 -6.890625 13.140625 -7.265625 C 12.804688 -7.648438 12.351562 -7.84375 11.78125 -7.84375 C 11.382812 -7.84375 11.023438 -7.753906 10.703125 -7.578125 C 10.378906 -7.410156 10.101562 -7.171875 9.875 -6.859375 C 9.894531 -6.742188 9.910156 -6.628906 9.921875 -6.515625 C 9.929688 -6.398438 9.9375 -6.28125 9.9375 -6.15625 L 9.9375 0 L 7.328125 0 L 7.328125 -5.78125 C 7.328125 -6.394531 7.160156 -6.890625 6.828125 -7.265625 C 6.492188 -7.648438 6.039062 -7.84375 5.46875 -7.84375 C 5.082031 -7.84375 4.734375 -7.765625 4.421875 -7.609375 C 4.117188 -7.460938 3.851562 -7.242188 3.625 -6.953125 L 3.625 0 Z M 1.03125 0 "/></g></g></g><g fill="#ffffff" fill-opacity="1"><g transform="translate(68.46875, 20.683472)"><g><path d="M 1.03125 3.96875 L 1.03125 -9.90625 L 3.59375 -9.90625 L 3.59375 -9.078125 C 3.988281 -9.398438 4.425781 -9.640625 4.90625 -9.796875 C 5.382812 -9.953125 5.882812 -10.03125 6.40625 -10.03125 C 7.101562 -10.03125 7.757812 -9.894531 8.375 -9.625 C 8.988281 -9.363281 9.519531 -9.003906 9.96875 -8.546875 C 10.425781 -8.085938 10.785156 -7.546875 11.046875 -6.921875 C 11.304688 -6.304688 11.4375 -5.644531 11.4375 -4.9375 C 11.4375 -4.226562 11.300781 -3.5625 11.03125 -2.9375 C 10.769531 -2.320312 10.410156 -1.785156 9.953125 -1.328125 C 9.492188 -0.867188 8.953125 -0.507812 8.328125 -0.25 C 7.703125 0.0078125 7.035156 0.140625 6.328125 0.140625 C 5.847656 0.140625 5.375 0.0703125 4.90625 -0.0625 C 4.445312 -0.195312 4.019531 -0.390625 3.625 -0.640625 L 3.625 3.96875 Z M 5.984375 -7.8125 C 5.515625 -7.8125 5.078125 -7.726562 4.671875 -7.5625 C 4.265625 -7.40625 3.914062 -7.175781 3.625 -6.875 L 3.625 -2.984375 C 3.90625 -2.703125 4.25 -2.476562 4.65625 -2.3125 C 5.070312 -2.15625 5.515625 -2.078125 5.984375 -2.078125 C 6.796875 -2.078125 7.476562 -2.347656 8.03125 -2.890625 C 8.59375 -3.441406 8.875 -4.125 8.875 -4.9375 C 8.875 -5.75 8.59375 -6.429688 8.03125 -6.984375 C 7.46875 -7.535156 6.785156 -7.8125 5.984375 -7.8125 Z M 5.984375 -7.8125 "/></g></g></g><g fill="#ffffff" fill-opacity="1"><g transform="translate(79.908764, 20.683472)"><g><path d="M 3.625 -13.875 L 3.625 0 L 1.03125 0 L 1.03125 -13.296875 Z M 3.625 -13.875 "/></g></g></g><g fill="#ffffff" fill-opacity="1"><g transform="translate(83.975427, 20.683472)"><g><path d="M 2.3125 -11.078125 C 1.90625 -11.078125 1.554688 -11.222656 1.265625 -11.515625 C 0.984375 -11.804688 0.84375 -12.15625 0.84375 -12.5625 C 0.84375 -12.96875 0.984375 -13.316406 1.265625 -13.609375 C 1.554688 -13.898438 1.90625 -14.046875 2.3125 -14.046875 C 2.71875 -14.046875 3.066406 -13.898438 3.359375 -13.609375 C 3.648438 -13.316406 3.796875 -12.96875 3.796875 -12.5625 C 3.796875 -12.15625 3.648438 -11.804688 3.359375 -11.515625 C 3.066406 -11.222656 2.71875 -11.078125 2.3125 -11.078125 Z M 3.625 -9.90625 L 3.625 0 L 1.03125 0 L 1.03125 -9.90625 Z M 3.625 -9.90625 "/></g></g></g><g fill="#ffffff" fill-opacity="1"><g transform="translate(88.042089, 20.683472)"><g><path d="M 0.34375 -9.90625 L 2.546875 -9.90625 L 2.546875 -10.84375 C 2.546875 -11.945312 2.867188 -12.796875 3.515625 -13.390625 C 4.160156 -13.984375 5.09375 -14.28125 6.3125 -14.28125 C 6.570312 -14.28125 6.84375 -14.265625 7.125 -14.234375 C 7.40625 -14.203125 7.644531 -14.160156 7.84375 -14.109375 L 7.84375 -11.9375 C 7.601562 -11.988281 7.390625 -12.023438 7.203125 -12.046875 C 7.023438 -12.066406 6.832031 -12.078125 6.625 -12.078125 C 6.132812 -12.078125 5.765625 -11.96875 5.515625 -11.75 C 5.273438 -11.539062 5.15625 -11.222656 5.15625 -10.796875 L 5.15625 -9.90625 L 7.84375 -9.90625 L 7.84375 -7.71875 L 5.15625 -7.71875 L 5.15625 0 L 2.546875 0 L 2.546875 -7.71875 L 0.34375 -7.71875 Z M 0.34375 -9.90625 "/></g></g></g><g fill="#ffffff" fill-opacity="1"><g transform="translate(95.662401, 20.683472)"><g><path d="M 3.703125 0.453125 L 3.859375 0.09375 L 0 -9.90625 L 2.875 -9.90625 L 5.3125 -3.15625 L 8.125 -9.90625 L 10.9375 -9.90625 L 6.390625 0.78125 C 5.878906 1.96875 5.285156 2.8125 4.609375 3.3125 C 3.941406 3.820312 3.070312 4.078125 2 4.078125 C 1.769531 4.078125 1.550781 4.066406 1.34375 4.046875 C 1.132812 4.035156 0.96875 4.007812 0.84375 3.96875 L 0.84375 1.734375 C 0.96875 1.753906 1.097656 1.769531 1.234375 1.78125 C 1.367188 1.800781 1.539062 1.8125 1.75 1.8125 C 2.21875 1.8125 2.613281 1.695312 2.9375 1.46875 C 3.257812 1.238281 3.515625 0.898438 3.703125 0.453125 Z M 3.703125 0.453125 "/></g></g></g></svg>